<svg width="48" height="73" viewBox="0 0 48 73" fill="none" xmlns="http://www.w3.org/2000/svg">
<path d="M23.8237 73.0002C21.8611 73.0002 19.9624 72.1895 18.1277 70.5682C16.3357 68.9469 14.8211 66.6002 13.5837 63.5282C12.3891 60.4562 11.6851 56.7442 11.4717 52.3922C10.1491 52.5202 8.93306 52.5842 7.82373 52.5842C5.34906 52.5842 3.53573 52.2642 2.38373 51.6242C1.27439 50.9842 0.719727 50.1522 0.719727 49.1282C0.719727 48.1042 1.21039 46.9735 2.19173 45.7362C3.17306 44.4989 4.53839 43.2615 6.28773 42.0242C8.03706 40.7442 10.0851 39.5922 12.4317 38.5682C13.2424 34.2162 14.5437 29.5229 16.3357 24.4882C18.1704 19.4109 20.6237 14.0349 23.6957 8.36021C23.9944 7.80555 24.4424 7.52821 25.0397 7.52821C25.4237 7.52821 25.7651 7.65621 26.0637 7.91221C26.3624 8.16821 26.5117 8.50954 26.5117 8.93621C26.5117 9.14954 26.4477 9.42688 26.3197 9.76821C23.5891 15.2722 21.3064 20.3282 19.4717 24.9362C17.6797 29.5015 16.2717 33.6829 15.2477 37.4802C17.1677 36.7549 19.2157 36.1575 21.3917 35.6882C23.5677 35.2189 25.7864 34.9415 28.0477 34.8562C28.6451 34.8562 28.9437 34.9415 28.9437 35.1122C28.9437 35.2829 28.7304 35.4535 28.3037 35.6242C27.9197 35.7522 27.2584 35.8375 26.3197 35.8802C24.2291 36.0082 22.2237 36.3069 20.3037 36.7762C18.4264 37.2029 16.6557 37.7362 14.9917 38.3762C14.3517 40.8509 13.8611 43.1549 13.5197 45.2882C13.1784 47.3789 12.9651 49.3202 12.8797 51.1122C17.2744 50.1735 21.2637 48.8082 24.8477 47.0162C28.4744 45.1815 31.6744 43.0695 34.4477 40.6802C37.2211 38.2909 39.5464 35.8162 41.4237 33.2562C42.6184 31.6349 43.4717 30.2055 43.9837 28.9682C44.5384 27.6882 44.8157 26.5789 44.8157 25.6402C44.8157 24.2749 44.3891 23.2082 43.5357 22.4402C42.6824 21.6295 41.5517 21.0535 40.1437 20.7122C38.7357 20.3282 37.1997 20.1362 35.5357 20.1362C33.7864 20.1362 32.0157 20.3069 30.2237 20.6482C28.4317 20.9469 26.8104 21.3735 25.3597 21.9282C25.0184 22.0135 24.7837 22.0562 24.6557 22.0562C24.1011 22.0562 23.8237 21.8642 23.8237 21.4802C23.8237 21.0962 24.0584 20.7975 24.5277 20.5842C29.7757 17.5975 33.5091 14.8882 35.7277 12.4562C37.9464 10.0242 39.0557 7.97621 39.0557 6.31221C39.0557 4.86154 38.3731 3.75221 37.0077 2.98421C35.6851 2.17354 33.9357 1.76821 31.7597 1.76821C30.0531 1.76821 28.1331 2.04554 25.9997 2.60021C23.8664 3.15488 21.6691 4.05088 19.4077 5.28821C17.5304 6.31221 15.8237 7.52821 14.2877 8.93621C12.7944 10.3015 11.5144 11.7309 10.4477 13.2242C9.42373 14.6749 8.65573 16.0615 8.14373 17.3842C7.63173 18.6642 7.43973 19.7522 7.56773 20.6482C7.56773 20.7335 7.56773 20.8402 7.56773 20.9682C7.61039 21.0535 7.63173 21.1389 7.63173 21.2242C7.63173 22.2909 7.31173 22.8242 6.67173 22.8242C6.37306 22.8242 6.05306 22.6109 5.71173 22.1842C5.41306 21.7575 5.26373 21.1175 5.26373 20.2642C5.26373 18.9842 5.64773 17.6189 6.41573 16.1682C7.22639 14.7175 8.29306 13.2669 9.61573 11.8162C10.9811 10.3229 12.4957 8.93621 14.1597 7.65621C15.8237 6.33354 17.5517 5.20288 19.3437 4.26421C21.6477 3.02688 23.9091 2.10954 26.1277 1.51221C28.3891 0.914878 30.4584 0.616211 32.3357 0.616211C34.9384 0.616211 37.0504 1.12821 38.6717 2.15221C40.2931 3.17621 41.1037 4.60555 41.1037 6.44021C41.1037 8.14688 40.2717 10.1309 38.6077 12.3922C36.9437 14.6535 34.1491 17.1495 30.2237 19.8802C31.5464 19.6669 32.7837 19.5175 33.9357 19.4322C35.0877 19.3042 36.1544 19.2402 37.1357 19.2402C40.8051 19.2402 43.4504 19.8589 45.0717 21.0962C46.7357 22.2909 47.5677 23.8482 47.5677 25.7682C47.5677 27.1762 47.1624 28.7122 46.3517 30.3762C45.5837 31.9975 44.4957 33.6829 43.0877 35.4322C41.0397 37.9495 38.4584 40.3815 35.3437 42.7282C32.2717 45.0749 28.8157 47.1015 24.9757 48.8082C21.1784 50.5149 17.1251 51.6669 12.8157 52.2642C12.7304 56.0615 13.0717 59.1975 13.8397 61.6722C14.6504 64.1469 15.6744 66.0669 16.9117 67.4322C18.1491 68.8402 19.3864 69.8215 20.6237 70.3762C21.8611 70.9735 22.8851 71.2722 23.6957 71.2722C24.2931 71.2722 24.6984 71.1656 24.9117 70.9522C25.0824 70.7389 25.3384 70.6322 25.6797 70.6322C26.0211 70.6322 26.3411 70.7602 26.6397 71.0162C26.9384 71.2722 27.0877 71.5495 27.0877 71.8482C27.0877 72.1042 26.9384 72.2962 26.6397 72.4242C25.7011 72.8082 24.7624 73.0002 23.8237 73.0002ZM8.07973 51.7522C8.54906 51.7522 9.06106 51.7095 9.61573 51.6242C10.1704 51.5815 10.7677 51.5175 11.4077 51.4322C11.3651 49.6402 11.4077 47.7629 11.5357 45.8002C11.6637 43.8375 11.8984 41.7895 12.2397 39.6562C9.50906 41.0642 7.35439 42.6429 5.77573 44.3922C4.19706 46.0989 3.40773 47.6135 3.40773 48.9362C3.40773 49.7469 3.79173 50.4082 4.55973 50.9202C5.32773 51.4749 6.50106 51.7522 8.07973 51.7522Z" fill="black"/>
</svg>
